<?xml version="1.0" encoding="UTF-8"?>
<svg width="39px" height="52px" viewBox="0 0 39 52" version="1.1" xmlns="http://www.w3.org/2000/svg" xmlns:xlink="http://www.w3.org/1999/xlink">
    <!-- Generator: sketchtool 59.1 (101010) - https://sketch.com -->
    <title>A227B496-6110-4322-850C-14F7D1AF8BB6</title>
    <desc>Created with sketchtool.</desc>
    <g id="Page-1" stroke="none" stroke-width="1" fill="none" fill-rule="evenodd">
        <g id="Go!-Bank-Demo-21---Pre-login" transform="translate(-308.000000, -596.000000)" fill-rule="nonzero">
            <g id="Group-1" transform="translate(308.000000, 596.000000)">
                <path d="M19.703125,0 C17.0286325,0 14.4980588,0.524734336 12.1113281,1.57421875 C9.72459744,2.62370316 7.63412355,4.0540274 5.83984375,5.86523438 C4.04556395,7.67644135 2.62370316,9.78384215 1.57421875,12.1875 C0.524734336,14.5911579 0,17.130195 0,19.8046875 C0,22.6145974 0.583978535,25.4244651 1.75195312,28.234375 C2.91992771,31.0442849 4.37564232,33.7779815 6.11914062,36.4355469 C7.86263893,39.0931122 9.7584533,41.6236859 11.8066406,44.0273438 L14.4522824,47.121867 C15.5191041,48.3652733 16.5415171,49.5512096 17.5195312,50.6796875 C17.5195312,50.7135418 17.7649715,50.9420552 18.2558594,51.3652344 C18.7467472,51.7884136 19.3476527,52 20.0585938,52 L20.2109375,52 C20.8880242,52 21.4804662,51.7884136 21.9882812,51.3652344 L22.3767589,51.0369327 C22.6255872,50.8224665 22.75,50.7033855 22.75,50.6796875 C24.4088625,48.7838447 26.1861884,46.6171997 28.0820312,44.1796875 C29.9778741,41.7421753 31.7382731,39.1608209 33.3632812,36.4355469 C34.9882894,33.7102728 36.333979,30.9342589 37.4003906,28.1074219 C38.4668022,25.2805848 39,22.5130344 39,19.8046875 C39,17.130195 38.5683637,14.5911579 37.7050781,12.1875 C36.8417926,9.78384215 35.5892009,7.67644135 33.9472656,5.86523438 C32.3053303,4.0540274 30.2825641,2.62370316 27.8789062,1.57421875 C25.4752484,0.524734336 22.7500152,0 19.703125,0 Z" id="Path" fill="#4A90E2"></path>
                <path d="M20.3125,48.4960938 C20.3125,48.5299481 20.2871096,48.5638019 20.2363281,48.5976563 C20.1855466,48.6315106 20.1432293,48.6653644 20.109375,48.6992188 L19.90625,48.4960938 L19.0429688,47.53125 L17.5962193,45.8419939 C16.369871,44.4049209 15.0917105,42.8944462 13.7617188,41.3105469 C11.8997303,39.0930879 10.190112,36.7910276 8.6328125,34.4042969 C7.07551305,32.0175662 5.78906758,29.588554 4.7734375,27.1171875 C3.75780742,24.645821 3.25,22.2083454 3.25,19.8046875 C3.25,17.5703013 3.69009977,15.4459736 4.5703125,13.4316406 C5.45052523,11.4173076 6.63540922,9.65690857 8.125,8.15039062 C9.61459078,6.64387268 11.3580629,5.45052523 13.3554688,4.5703125 C15.3528746,3.69009977 17.4687388,3.25 19.703125,3.25 C22.4791805,3.25 24.8743389,3.72395359 26.8886719,4.671875 C28.9030049,5.61979641 30.5703059,6.87238805 31.890625,8.4296875 C33.2109441,9.98698695 34.1842417,11.7558495 34.8105469,13.7363281 C35.4368521,15.7168068 35.75,17.739573 35.75,19.8046875 C35.75,21.6328216 35.4283886,23.6048071 34.7851562,25.7207031 C34.1419239,27.8365991 33.1770898,30.0878787 31.890625,32.4746094 C30.6041602,34.8613401 28.9961034,37.3919137 27.0664062,40.0664063 C25.1367091,42.7408988 22.8854295,45.5507665 20.3125,48.4960938 Z" id="Path" fill="#4A90E2"></path>
                <path d="M19.5507812,9.80078125 C16.8762887,9.80078125 14.5826919,10.7571519 12.6699219,12.6699219 C10.7571519,14.5826919 9.80078125,16.8762887 9.80078125,19.5507812 C9.80078125,22.2591281 10.7571519,24.5611884 12.6699219,26.4570312 C14.5826919,28.3528741 16.8762887,29.3007812 19.5507812,29.3007812 C22.2591281,29.3007812 24.5611884,28.3528741 26.4570312,26.4570312 C28.3528741,24.5611884 29.3007812,22.2591281 29.3007812,19.5507812 C29.3007812,16.8762887 28.3528741,14.5826919 26.4570312,12.6699219 C24.5611884,10.7571519 22.2591281,9.80078125 19.5507812,9.80078125 Z" id="Path" stroke="#FFFFFF" fill="#4A90E2"></path>
                <path d="M19.5507812,26.0507812 C17.7565014,26.0507812 16.2161523,25.4075585 14.9296875,24.1210937 C13.6432227,22.834629 13,21.2942798 13,19.5 C13,17.7057202 13.6347593,16.1738345 14.9042969,14.9042969 C16.1738345,13.6347593 17.7057202,13 19.5,13 C21.2942798,13 22.8261655,13.6347593 24.0957031,14.9042969 C25.3652407,16.1738345 26,17.7057202 26,19.5 C26,21.2942798 25.3737042,22.834629 24.1210938,24.1210937 C22.8684833,25.4075585 21.3450611,26.0507812 19.5507812,26.0507812 Z" id="Path" fill="#FFFFFF"></path>
            </g>
        </g>
    </g>
</svg>