<?xml version="1.0" encoding="UTF-8"?>
<svg width="672px" height="456px" viewBox="0 0 672 456" version="1.1" xmlns="http://www.w3.org/2000/svg" xmlns:xlink="http://www.w3.org/1999/xlink">
    <!-- Generator: sketchtool 59.1 (101010) - https://sketch.com -->
    <title>FA56C5E8-FCD7-4E63-BB00-EAE2E0DCB30A</title>
    <desc>Created with sketchtool.</desc>
    <g id="Page-1" stroke="none" stroke-width="1" fill="none" fill-rule="evenodd">
        <g id="Go!-Bank-Demo-2---Validate-your-ID" transform="translate(-406.000000, -1613.000000)" fill="#FFFFFF">
            <g id="Group-4" transform="translate(406.000000, 1613.000000)">
                <path d="M71.2920848,456 L91,456 L54.7156715,372 L36.1682765,372 L0,456 L19.2437071,456 L26.4313221,437.999859 L64.1063723,437.999859 L71.2920848,456 Z M32.458417,423.23935 L45.3268732,391.081331 L58.193427,423.23935 L32.458417,423.23935 L32.458417,423.23935 Z" id="Fill-1"></path>
                <path d="M266.443844,372 L233,372 L233,456 L250.881279,456 L250.881279,432.840082 L266.443844,432.840082 C287.085843,432.840082 300,421.199072 300,402.480107 C300,383.64101 287.085843,372 266.443844,372 Z M265.451144,417.000352 L250.881279,417.000352 L250.881279,387.83973 L265.451144,387.83973 C276.378089,387.83973 281.897718,393.239772 281.897718,402.480107 C281.897718,411.600309 276.378089,417.000352 265.451144,417.000352 L265.451144,417.000352 Z" id="Fill-2"></path>
                <polygon id="Fill-3" points="440 456 464 456 464 372 440 372"></polygon>
                <polyline id="Fill-4" points="672 456 641.034492 412.561367 669.984701 372 649.220306 372 630.475104 399.240475 611.373574 372 589.542142 372 618.729903 413.280191 588 456 610.068985 456 629.762448 426.839378 649.814186 456 672 456"></polyline>
                <path d="M488.900397,138.285191 L610.556676,138.285191 C609.314085,133.380499 607.74641,128.609971 605.881454,124 L499.102047,124 L488.900397,138.285191 Z M523.61381,208 L605.881454,208 C607.74641,203.38783 609.314085,198.619501 610.556676,193.714809 L533.813321,193.714809 L523.61381,208 Z M439,173.141496 L613.769019,173.141496 C613.91659,170.779326 614,168.39956 614,166 C614,163.60044 613.91659,161.220674 613.769019,158.858504 L449.20165,158.858504 L439,173.141496 L439,173.141496 Z" id="Fill-5"></path>
                <path d="M246.071601,204.213034 L150.107526,204.213034 L150.107526,149 L315,149 L315,323.58457 L258.765156,323.58457 L258.765156,284.679133 C230.518004,309.146408 193.425281,324 152.797921,324 C124.562744,324 98.0380042,316.82207 75,304.235709 C148.476923,299.871732 207.202578,263.441241 246.071601,204.213034" id="Fill-6"></path>
                <path d="M161.212331,0 C233.352816,0 294.422565,49.4371323 315,117.60483 L248.561526,117.60483 C231.507693,85.6164673 198.785375,63.9704428 161.212331,63.9704428 C106.045369,63.9704428 61.3227252,110.624066 61.3227252,168.17296 C61.3227252,220.171591 97.8376845,263.273046 145.579985,271.099963 C110.827831,282.150222 73.4736315,283.974478 37.8721987,276.44916 C14.2429824,247.196134 0,209.420836 0,168.17296 C0,75.2929787 72.1766247,0 161.212331,0" id="Fill-7"></path>
                <polyline id="Fill-8" points="645.067834 324 645.067834 309.007061 638 309.007061 638 307 655 307 655 309.007061 647.902938 309.007061 647.902938 324 645.067834 324"></polyline>
                <path d="M655,324 L655,307 L658.548287,307 L662.76298,319.036051 C663.153557,320.156467 663.438214,320.996779 663.612539,321.554881 C663.817757,320.935704 664.131101,320.025892 664.563603,318.827552 L668.826843,307 L672,307 L672,324 L669.727155,324 L669.727155,309.771556 L664.550363,324 L662.423157,324 L657.272845,309.529361 L657.272845,324 L655,324" id="Fill-9"></path>
                <path d="M514.499015,0 C601.484641,0 672,74.097092 672,165.501035 C672,256.902908 601.484641,331 514.499015,331 C427.515359,331 357,256.902908 357,165.501035 C357,74.097092 427.515359,0 514.499015,0 Z M613.162983,165.501035 C613.162983,222.759197 568.98941,269.176507 514.499015,269.176507 C460.00862,269.176507 415.835046,222.759197 415.835046,165.501035 C415.835046,108.240803 460.00862,61.8255634 514.499015,61.8255634 C568.98941,61.8255634 613.162983,108.240803 613.162983,165.501035 Z" id="Fill-10"></path>
            </g>
        </g>
    </g>
</svg>